<svg width="180" height="56" viewBox="0 0 180 56" fill="none" xmlns="http://www.w3.org/2000/svg">
<g filter="url(#filter0_d_1_4)">
<path d="M21.7109 26.582C21.7109 27.1797 21.5176 27.7949 21.1309 28.4277C20.7441 29.0605 20.2344 29.6758 19.6016 30.2734C18.9805 30.8594 18.2773 31.416 17.4922 31.9434C16.7188 32.4707 15.9336 32.9395 15.1367 33.3496C14.3516 33.748 13.5957 34.0645 12.8691 34.2988C12.1426 34.5449 11.5273 34.6738 11.0234 34.6855C10.543 34.709 10.0273 34.668 9.47656 34.5625C8.92578 34.457 8.39844 34.3223 7.89453 34.1582C7.40234 34.0059 6.95703 33.8418 6.55859 33.666C6.17188 33.4785 5.9082 33.3145 5.76758 33.1738C5.68555 33.0801 5.61523 32.9805 5.55664 32.875C5.50977 32.7578 5.48633 32.6348 5.48633 32.5059C5.48633 32.3652 5.52148 32.2246 5.5918 32.084C5.67383 31.9316 5.80273 31.7793 5.97852 31.627C6.14258 31.498 6.34766 31.334 6.59375 31.1348C6.80469 30.9707 7.07422 30.7598 7.40234 30.502C7.73047 30.2324 8.13477 29.9102 8.61523 29.5352C8.43945 29.7109 8.32812 29.875 8.28125 30.0273C8.23438 30.1797 8.2168 30.3203 8.22852 30.4492C8.24023 30.5898 8.28711 30.7188 8.36914 30.8359C8.48633 30.9883 8.69141 31.1582 8.98438 31.3457C9.27734 31.5332 9.62891 31.709 10.0391 31.873C10.4609 32.0254 10.9297 32.1543 11.4453 32.2598C11.9727 32.3652 12.5176 32.418 13.0801 32.418C13.7715 32.418 14.457 32.3535 15.1367 32.2246C15.8164 32.084 16.4258 31.8555 16.9648 31.5391C17.5156 31.2227 17.9551 30.8066 18.2832 30.291C18.623 29.7637 18.793 29.1133 18.793 28.3398C18.793 27.625 18.623 26.998 18.2832 26.459C17.9551 25.9082 17.5215 25.416 16.9824 24.9824C16.4434 24.5488 15.8223 24.1562 15.1191 23.8047C14.4277 23.4414 13.7188 23.084 12.9922 22.7324C12.2773 22.3809 11.5684 22.0234 10.8652 21.6602C10.1738 21.2969 9.55859 20.8926 9.01953 20.4473C8.48047 19.9902 8.04102 19.4805 7.70117 18.918C7.37305 18.3438 7.20898 17.6816 7.20898 16.9316C7.20898 16.2051 7.38477 15.4961 7.73633 14.8047C8.09961 14.1016 8.57422 13.4453 9.16016 12.8359C9.74609 12.2148 10.4141 11.6406 11.1641 11.1133C11.9258 10.5859 12.7051 10.1348 13.502 9.75977C14.2988 9.37305 15.0781 9.07422 15.8398 8.86328C16.6133 8.64062 17.3105 8.52344 17.9316 8.51172C18.5293 8.5 19.1035 8.5293 19.6543 8.59961C20.2051 8.6582 20.668 8.75195 21.043 8.88086C21.418 9.00977 21.6758 9.17383 21.8164 9.37305C21.957 9.56055 21.9219 9.77734 21.7109 10.0234C21.5352 10.2227 21.3184 10.4336 21.0605 10.6562C20.8262 10.8555 20.5391 11.0781 20.1992 11.3242C19.8594 11.5703 19.4434 11.834 18.9512 12.1152C19.0449 11.9746 19.0977 11.8516 19.1094 11.7461C19.1211 11.6289 19.1152 11.5352 19.0918 11.4648C19.0566 11.3828 19.0098 11.3125 18.9512 11.2539C18.8691 11.1836 18.7227 11.1074 18.5117 11.0254C18.3125 10.9434 18.0605 10.8613 17.7559 10.7793C17.4512 10.6973 17.1055 10.6328 16.7188 10.5859C16.332 10.5273 15.9219 10.498 15.4883 10.498C14.7852 10.498 14.1055 10.5859 13.4492 10.7617C12.8047 10.9258 12.2305 11.1836 11.7266 11.5352C11.2344 11.8867 10.8359 12.332 10.5312 12.8711C10.2383 13.4102 10.0918 14.043 10.0918 14.7695C10.0918 15.5664 10.2559 16.2637 10.584 16.8613C10.9238 17.459 11.3633 17.9922 11.9023 18.4609C12.4531 18.918 13.0742 19.334 13.7656 19.709C14.4688 20.084 15.1777 20.4473 15.8926 20.7988C16.6191 21.1387 17.3281 21.4902 18.0195 21.8535C18.7227 22.2168 19.3438 22.6211 19.8828 23.0664C20.4336 23.5117 20.873 24.0215 21.2012 24.5957C21.541 25.1582 21.7109 25.8203 21.7109 26.582ZM28.7773 3.43164C28.8008 3.6543 28.8125 3.94727 28.8125 4.31055C28.8125 4.67383 28.8125 5.10156 28.8125 5.59375C28.8125 8.3125 28.748 10.9727 28.6191 13.5742C28.502 16.1641 28.3496 18.748 28.1621 21.3262C28.5957 20.6465 29.0762 19.9551 29.6035 19.252C30.1426 18.5488 30.7109 17.916 31.3086 17.3535C31.9062 16.7793 32.5273 16.3164 33.1719 15.9648C33.8164 15.6016 34.4727 15.4199 35.1406 15.4199C35.6914 15.4199 36.1484 15.5605 36.5117 15.8418C36.875 16.123 37.1621 16.4746 37.373 16.8965C37.584 17.3184 37.7305 17.7754 37.8125 18.2676C37.9062 18.7598 37.9531 19.2168 37.9531 19.6387C37.9531 20.5293 37.918 21.4141 37.8477 22.293C37.7773 23.1602 37.7012 24.0215 37.6191 24.877C37.5488 25.7324 37.4785 26.5879 37.4082 27.4434C37.3379 28.2871 37.3027 29.1309 37.3027 29.9746C37.3027 30.209 37.3145 30.4434 37.3379 30.6777C37.3613 30.9121 37.4141 31.1289 37.4961 31.3281C37.5781 31.5156 37.6895 31.6738 37.8301 31.8027C37.9824 31.9199 38.1816 31.9785 38.4277 31.9785C38.7559 31.9785 39.0898 31.8438 39.4297 31.5742C39.7812 31.293 40.1035 30.9707 40.3965 30.6074C40.7012 30.2324 40.9707 29.8633 41.2051 29.5C41.4512 29.125 41.6387 28.8379 41.7676 28.6387L41.3809 30.2559C40.8652 30.7598 40.4375 31.1699 40.0977 31.4863C39.7695 31.791 39.5059 32.0371 39.3066 32.2246C39.0723 32.4355 38.8848 32.5938 38.7441 32.6992C38.6035 32.8164 38.4277 32.9746 38.2168 33.1738C38.0059 33.373 37.7715 33.5664 37.5137 33.7539C37.2676 33.9414 37.0039 34.0996 36.7227 34.2285C36.4531 34.3691 36.1777 34.4395 35.8965 34.4395C35.6621 34.4395 35.4688 34.4043 35.3164 34.334C35.1641 34.2637 35.041 34.1406 34.9473 33.9648C34.8535 33.7891 34.7832 33.5605 34.7363 33.2793C34.7012 32.9863 34.6836 32.6172 34.6836 32.1719C34.6836 31.0703 34.7129 29.998 34.7715 28.9551C34.8418 27.9004 34.9121 26.8633 34.9824 25.8438C35.0527 24.8242 35.1113 23.8164 35.1582 22.8203C35.2051 21.8242 35.2109 20.834 35.1758 19.8496C35.1523 19.5684 35.082 19.3047 34.9648 19.0586C34.8477 18.8008 34.6836 18.5781 34.4727 18.3906C34.2734 18.2031 34.0332 18.0625 33.752 17.9688C33.4707 17.8633 33.166 17.8281 32.8379 17.8633C32.5098 17.8984 32.1875 17.9922 31.8711 18.1445C31.5664 18.2969 31.2617 18.5254 30.957 18.8301C30.6641 19.1348 30.3652 19.5273 30.0605 20.0078C29.7676 20.4883 29.4688 21.0859 29.1641 21.8008C29.0352 22.1172 28.9004 22.4688 28.7598 22.8555C28.6309 23.1953 28.4902 23.5938 28.3379 24.0508C28.1855 24.4961 28.0332 24.9941 27.8809 25.5449L27.4414 32.6289L24.6289 34.8262C24.8164 32.5645 24.998 30.3555 25.1738 28.1992C25.3613 26.0312 25.5254 23.9043 25.666 21.8184C25.8066 19.7207 25.918 17.6523 26 15.6133C26.0938 13.5625 26.1406 11.5176 26.1406 9.47852C26.1406 8.75195 26.123 8.08398 26.0879 7.47461C26.0645 6.86523 26.0234 6.33203 25.9648 5.875C25.918 5.40625 25.8535 5.01953 25.7715 4.71484C25.6895 4.41016 25.5898 4.19922 25.4727 4.08203C25.2969 3.96484 25.0918 3.90625 24.8574 3.90625C24.6582 3.90625 24.4062 3.96484 24.1016 4.08203C23.8086 4.1875 23.457 4.41602 23.0469 4.76758C23.293 4.55664 23.5977 4.27539 23.9609 3.92383C24.3242 3.57227 24.7051 3.23242 25.1035 2.9043C25.502 2.56445 25.9004 2.27734 26.2988 2.04297C26.6973 1.79688 27.0547 1.67383 27.3711 1.67383C27.7109 1.67383 28.0156 1.80859 28.2852 2.07812C28.5547 2.34766 28.7188 2.79883 28.7773 3.43164ZM54.6875 20.4648C54.7227 21.3789 54.6934 22.2754 54.5996 23.1543C54.5059 24.0332 54.3652 24.8594 54.1777 25.6328C54.002 26.3945 53.7793 27.0918 53.5098 27.7246C53.252 28.3457 52.9707 28.8555 52.666 29.2539C52.4668 29.5234 52.1855 29.8398 51.8223 30.2031C51.4707 30.5547 51.0723 30.9238 50.627 31.3105C50.1816 31.6855 49.707 32.0605 49.2031 32.4355C48.6992 32.8105 48.2012 33.1445 47.709 33.4375C47.2168 33.7188 46.7422 33.9473 46.2852 34.123C45.8398 34.3105 45.4473 34.4043 45.1074 34.4043C44.709 34.4043 44.3633 34.2988 44.0703 34.0879C43.7773 33.8887 43.5254 33.625 43.3145 33.2969C43.1035 32.957 42.9277 32.582 42.7871 32.1719C42.6465 31.75 42.5352 31.334 42.4531 30.9238C42.3711 30.502 42.3125 30.1035 42.2773 29.7285C42.2539 29.3418 42.2422 29.0137 42.2422 28.7441C42.2422 27.7129 42.3359 26.6934 42.5234 25.6855C42.7109 24.666 42.998 23.6992 43.3848 22.7852C43.7832 21.8711 44.2812 21.0273 44.8789 20.2539C45.4766 19.4688 46.1914 18.7949 47.0234 18.2324C47.5625 17.8691 48.0488 17.541 48.4824 17.248C48.916 16.9434 49.3145 16.6914 49.6777 16.4922C50.041 16.293 50.3691 16.1406 50.6621 16.0352C50.9668 15.918 51.2539 15.8594 51.5234 15.8594C51.7812 15.8594 52.0801 15.9297 52.4199 16.0703C52.7715 16.2109 53.1055 16.457 53.4219 16.8086C53.75 17.1484 54.0312 17.6172 54.2656 18.2148C54.5 18.8008 54.6406 19.5508 54.6875 20.4648ZM51.9102 23.3828C51.9102 22.8906 51.875 22.3281 51.8047 21.6953C51.7344 21.0625 51.5938 20.4707 51.3828 19.9199C51.1719 19.3691 50.873 18.9062 50.4863 18.5312C50.1113 18.1445 49.6074 17.9512 48.9746 17.9512C48.7168 17.9512 48.4473 18.0098 48.166 18.127C47.8965 18.2324 47.6445 18.4023 47.4102 18.6367C46.9414 19.1055 46.5605 19.6445 46.2676 20.2539C45.9863 20.8516 45.7637 21.4844 45.5996 22.1523C45.4355 22.8203 45.3242 23.4941 45.2656 24.1738C45.207 24.8535 45.1777 25.498 45.1777 26.1074C45.1777 26.4238 45.1836 26.793 45.1953 27.2148C45.207 27.625 45.2422 28.0527 45.3008 28.498C45.3594 28.9316 45.4414 29.3652 45.5469 29.7988C45.6641 30.2324 45.8164 30.6191 46.0039 30.959C46.2031 31.2871 46.4492 31.5566 46.7422 31.7676C47.0352 31.9785 47.3926 32.084 47.8145 32.084C48.377 32.084 48.8691 31.9258 49.291 31.6094C49.7129 31.2812 50.0762 30.8594 50.3809 30.3438C50.6855 29.8281 50.9316 29.248 51.1191 28.6035C51.3184 27.959 51.4766 27.3145 51.5938 26.6699C51.7109 26.0254 51.793 25.416 51.8398 24.8418C51.8867 24.2559 51.9102 23.7695 51.9102 23.3828ZM64.707 43.1406C64.2734 43.5859 63.875 43.9668 63.5117 44.2832C63.1602 44.6113 62.8496 44.875 62.5801 45.0742C62.2754 45.3086 61.9883 45.5078 61.7188 45.6719C61.4023 45.8711 61.0801 46.0176 60.752 46.1113C60.4238 46.2168 60.1191 46.2812 59.8379 46.3047C59.5566 46.3281 59.3105 46.3105 59.0996 46.252C58.9004 46.1934 58.7656 46.1055 58.6953 45.9883C58.6133 45.8828 58.5723 45.5781 58.5723 45.0742C58.5723 44.582 58.5957 43.9668 58.6426 43.2285C58.6895 42.502 58.7422 41.6934 58.8008 40.8027C58.8711 39.9121 58.9297 39.0098 58.9766 38.0957L59.1523 34.2109C58.8477 34.2109 58.5547 34.2051 58.2734 34.1934C57.9922 34.1816 57.7227 34.1758 57.4648 34.1758C57.207 34.1758 56.9844 34.1758 56.7969 34.1758C56.6211 34.1875 56.4863 34.2109 56.3926 34.2461C56.9551 33.8477 57.4531 33.4609 57.8867 33.0859C58.332 32.7109 58.7891 32.4062 59.2578 32.1719C59.293 31.2812 59.3281 30.3672 59.3633 29.4297C59.4102 28.4922 59.4512 27.5781 59.4863 26.6875C59.5332 25.7852 59.5684 24.9297 59.5918 24.1211C59.627 23.3008 59.6562 22.5742 59.6797 21.9414C59.7148 21.2969 59.7383 20.7637 59.75 20.3418C59.7617 19.9082 59.7676 19.627 59.7676 19.498C59.7676 19.1348 59.6387 18.8242 59.3809 18.5664C59.1348 18.2969 58.8066 18.1621 58.3965 18.1621C58.1973 18.1621 57.9805 18.2031 57.7461 18.2852C57.5117 18.3555 57.2598 18.4727 56.9902 18.6367C57.3184 18.332 57.6523 18.0156 57.9922 17.6875C58.3438 17.3594 58.6953 17.0664 59.0469 16.8086C59.4102 16.5391 59.7734 16.3223 60.1367 16.1582C60.5117 15.9824 60.8926 15.8945 61.2793 15.8945C61.6426 15.8945 61.9414 16.0117 62.1758 16.2461C62.4219 16.4805 62.5449 16.8789 62.5449 17.4414C62.5449 17.7344 62.5273 18.3438 62.4922 19.2695C62.4688 20.1836 62.4277 21.3027 62.3691 22.627C62.6035 22.0527 62.8145 21.5723 63.002 21.1855C63.2012 20.7871 63.3652 20.4648 63.4941 20.2188C63.6465 19.9258 63.7754 19.6973 63.8809 19.5332C64.2441 19.0059 64.6426 18.5078 65.0762 18.0391C65.5098 17.5703 65.9492 17.1543 66.3945 16.791C66.8398 16.4277 67.2852 16.1289 67.7305 15.8945C68.1758 15.6484 68.6035 15.4902 69.0137 15.4199C69.4355 15.3613 69.8457 15.4141 70.2441 15.5781C70.6426 15.7305 71 16.0059 71.3164 16.4043C71.6328 16.8027 71.8965 17.3242 72.1074 17.9688C72.3184 18.6016 72.4414 19.3633 72.4766 20.2539C72.5 21.25 72.3945 22.2695 72.1602 23.3125C71.9258 24.3438 71.5801 25.3574 71.123 26.3535C70.6777 27.3379 70.1328 28.2754 69.4883 29.166C68.8438 30.0566 68.123 30.8535 67.3262 31.5566C66.5293 32.248 65.668 32.8281 64.7422 33.2969C63.8164 33.7539 62.8555 34.0469 61.8594 34.1758L61.4551 43.5098C61.5488 43.5566 61.6602 43.6035 61.7891 43.6504C61.8945 43.6855 62.0176 43.7148 62.1582 43.7383C62.3105 43.7734 62.4863 43.791 62.6855 43.791C62.9551 43.791 63.2656 43.7441 63.6172 43.6504C63.9688 43.5684 64.332 43.3984 64.707 43.1406ZM63.582 31.8379C63.9219 31.8379 64.2559 31.832 64.584 31.8203C64.9121 31.7969 65.2168 31.7676 65.498 31.7324C65.791 31.6855 66.0547 31.627 66.2891 31.5566C66.5234 31.4746 66.7168 31.375 66.8691 31.2578C67.1035 31.082 67.3848 30.7891 67.7129 30.3789C68.041 29.9688 68.3516 29.4531 68.6445 28.832C68.9492 28.1992 69.207 27.4609 69.418 26.6172C69.6289 25.7734 69.7344 24.8242 69.7344 23.7695C69.7344 23.4414 69.7168 23.0488 69.6816 22.5918C69.6582 22.1348 69.6055 21.666 69.5234 21.1855C69.4414 20.7051 69.3242 20.2422 69.1719 19.7969C69.0195 19.3398 68.8203 18.9531 68.5742 18.6367C68.3398 18.3086 68.0527 18.0742 67.7129 17.9336C67.373 17.793 66.9688 17.7988 66.5 17.9512C66.2539 18.0332 65.9844 18.2266 65.6914 18.5312C65.3984 18.8242 65.0938 19.2695 64.7773 19.8672C64.4727 20.4648 64.1621 21.2324 63.8457 22.1699C63.541 23.0957 63.2598 24.2324 63.002 25.5801C62.9199 25.9199 62.8262 26.3008 62.7207 26.7227C62.627 27.0859 62.5215 27.5137 62.4043 28.0059C62.2988 28.4863 62.1875 29.0078 62.0703 29.5703L61.9648 31.8027C62.2344 31.8027 62.5039 31.8086 62.7734 31.8203C63.043 31.832 63.3125 31.8379 63.582 31.8379ZM92.252 23.2422C91.8887 23.2422 91.5547 23.377 91.25 23.6465C90.9453 23.9043 90.6465 24.1914 90.3535 24.5078C90.0605 24.8125 89.7559 25.0996 89.4395 25.3691C89.123 25.627 88.7773 25.7559 88.4023 25.7559H75.2891C75.4883 25.7207 75.6934 25.6328 75.9043 25.4922C76.1152 25.3516 76.3262 25.1934 76.5371 25.0176C76.748 24.8301 76.959 24.6309 77.1699 24.4199C77.3926 24.209 77.6152 24.0215 77.8379 23.8574C78.0605 23.6816 78.2773 23.5352 78.4883 23.418C78.7109 23.3008 78.9277 23.2422 79.1387 23.2422H92.252ZM129.131 31.9082C128.85 32.1426 128.457 32.4062 127.953 32.6992C127.449 32.9922 126.857 33.2676 126.178 33.5254C125.51 33.7832 124.771 34 123.963 34.1758C123.154 34.3516 122.311 34.4395 121.432 34.4395C121.584 34.1582 121.707 33.9062 121.801 33.6836C121.906 33.4492 121.988 33.2207 122.047 32.998C122.117 32.7754 122.164 32.5527 122.188 32.3301C122.211 32.1074 122.223 31.8613 122.223 31.5918C122.223 31.2871 122.205 30.7598 122.17 30.0098C122.135 29.248 122.094 28.3574 122.047 27.3379C122 26.3184 121.947 25.2109 121.889 24.0156C121.83 22.8203 121.771 21.6367 121.713 20.4648C121.666 19.293 121.619 18.1797 121.572 17.125C121.537 16.0703 121.514 15.168 121.502 14.418C120.881 15.5078 120.266 16.5156 119.656 17.4414C119.059 18.3555 118.467 19.2344 117.881 20.0781C117.307 20.9219 116.744 21.748 116.193 22.5566C115.654 23.3652 115.127 24.2031 114.611 25.0703C114.107 25.9375 113.627 26.8574 113.17 27.8301C112.713 28.791 112.285 29.8516 111.887 31.0117L108.828 34.4395C108.852 34.0293 108.775 33.5371 108.6 32.9629C108.424 32.377 108.219 31.8145 107.984 31.2754C107.715 30.6426 107.41 29.9922 107.07 29.3242C106.672 28.5977 106.139 27.6016 105.471 26.3359C104.885 25.2695 104.117 23.8457 103.168 22.0645C102.219 20.2832 101.035 18.0684 99.6172 15.4199C99.5352 16.8496 99.4531 18.2969 99.3711 19.7617C99.3008 21.2266 99.2012 22.6797 99.0723 24.1211C98.9434 25.5508 98.7617 26.957 98.5273 28.3398C98.3047 29.7109 98.0059 31.0117 97.6309 32.2422C97.8301 32.3125 98.0527 32.3652 98.2988 32.4004C98.5449 32.4355 98.791 32.4531 99.0371 32.4531C99.2949 32.4531 99.541 32.4414 99.7754 32.418C100.01 32.3945 100.221 32.3711 100.408 32.3477C100.619 32.3125 100.824 32.2773 101.023 32.2422C100.531 32.6172 100.074 32.9395 99.6523 33.209C99.2422 33.4785 98.8145 33.707 98.3691 33.8945C97.9355 34.082 97.4551 34.2168 96.9277 34.2988C96.4004 34.3926 95.7734 34.4395 95.0469 34.4395C95.375 34.123 95.6562 33.6016 95.8906 32.875C96.1367 32.1367 96.3418 31.2637 96.5059 30.2559C96.6816 29.2363 96.8281 28.1113 96.9453 26.8809C97.0625 25.6504 97.1621 24.3906 97.2441 23.1016C97.3379 21.8008 97.4082 20.5 97.4551 19.1992C97.5137 17.8984 97.5723 16.668 97.6309 15.5078C97.6895 14.3359 97.748 13.2695 97.8066 12.3086C97.8652 11.3359 97.9414 10.5391 98.0352 9.91797L100.584 7.10547C100.49 7.29297 100.443 7.50391 100.443 7.73828C100.443 7.97266 100.467 8.19531 100.514 8.40625C100.561 8.65234 100.631 8.9043 100.725 9.16211C100.783 9.31445 100.941 9.64844 101.199 10.1641C101.457 10.6797 101.779 11.3184 102.166 12.0801C102.553 12.8301 102.992 13.6855 103.484 14.6465C103.988 15.5957 104.51 16.5918 105.049 17.6348C105.588 18.666 106.133 19.7148 106.684 20.7812C107.234 21.8359 107.762 22.8496 108.266 23.8223C108.77 24.7949 109.232 25.7031 109.654 26.5469C110.076 27.3789 110.428 28.0879 110.709 28.6738C111.705 27.127 112.713 25.5625 113.732 23.9805C114.764 22.3984 115.748 20.8223 116.686 19.252C117.635 17.6816 118.514 16.123 119.322 14.5762C120.143 13.0176 120.846 11.4883 121.432 9.98828L125.105 7.10547C125.035 9.27344 125.018 11.3535 125.053 13.3457C125.088 15.3262 125.141 17.2598 125.211 19.1465C125.293 21.0332 125.369 22.8848 125.439 24.7012C125.51 26.5176 125.545 28.334 125.545 30.1504C125.545 30.6777 125.51 31.1113 125.439 31.4512C125.381 31.7793 125.27 32.0078 125.105 32.1367C125.645 32.207 126.195 32.2422 126.758 32.2422C127.227 32.2422 127.666 32.2188 128.076 32.1719C128.498 32.1133 128.85 32.0254 129.131 31.9082ZM147.395 29.4297C147.289 29.5938 147.143 29.793 146.955 30.0273C146.768 30.25 146.58 30.4727 146.393 30.6953C146.182 30.9531 145.953 31.2168 145.707 31.4863C145.402 31.8613 145.074 32.2246 144.723 32.5762C144.371 32.9277 144.02 33.2441 143.668 33.5254C143.328 33.7949 142.994 34.0117 142.666 34.1758C142.338 34.3398 142.045 34.416 141.787 34.4043C141.295 34.3809 140.955 34.082 140.768 33.5078C140.58 32.9219 140.486 32.0781 140.486 30.9766C140.486 30.3906 140.504 29.7578 140.539 29.0781C140.574 28.3984 140.627 27.6367 140.697 26.793C140.439 27.2031 140.193 27.5781 139.959 27.918C139.725 28.2578 139.514 28.5566 139.326 28.8145C139.115 29.1191 138.904 29.3945 138.693 29.6406C138.072 30.4023 137.469 31.0762 136.883 31.6621C136.309 32.248 135.775 32.7402 135.283 33.1387C134.803 33.5371 134.375 33.8418 134 34.0527C133.637 34.2637 133.35 34.3809 133.139 34.4043C132.928 34.4277 132.67 34.3574 132.365 34.1934C132.072 34.0293 131.791 33.7129 131.521 33.2441C131.252 32.7754 131.018 32.1191 130.818 31.2754C130.631 30.4316 130.543 29.3359 130.555 27.9883C130.566 26.6406 130.707 25.457 130.977 24.4375C131.258 23.4062 131.615 22.5098 132.049 21.748C132.494 20.9746 132.986 20.3125 133.525 19.7617C134.064 19.1992 134.598 18.7129 135.125 18.3027C136.215 17.4707 137.258 16.8086 138.254 16.3164C139.262 15.8125 140.246 15.5488 141.207 15.5254C141.523 15.5137 141.834 15.5195 142.139 15.543C142.408 15.5664 142.695 15.6074 143 15.666C143.316 15.7129 143.615 15.7891 143.896 15.8945L144.406 15.4902C144.336 15.8184 144.26 16.2637 144.178 16.8262C144.107 17.3887 144.037 18.0215 143.967 18.7246C143.896 19.4277 143.826 20.1777 143.756 20.9746C143.686 21.7715 143.621 22.5742 143.562 23.3828C143.516 24.1797 143.469 24.959 143.422 25.7207C143.375 26.4707 143.334 27.1562 143.299 27.7773C143.275 28.3984 143.258 28.9258 143.246 29.3594C143.246 29.793 143.252 30.0918 143.264 30.2559C143.322 30.9238 143.475 31.3809 143.721 31.627C143.979 31.873 144.33 31.8496 144.775 31.5566C144.951 31.416 145.168 31.1934 145.426 30.8887C145.648 30.6309 145.918 30.2793 146.234 29.834C146.562 29.377 146.949 28.7852 147.395 28.0586V29.4297ZM141.383 18.2324C140.27 18.0918 139.355 18.0215 138.641 18.0215C137.879 18.0215 137.217 18.1445 136.654 18.3906C136.092 18.6367 135.611 18.9707 135.213 19.3926C134.814 19.8027 134.486 20.2832 134.229 20.834C133.971 21.373 133.766 21.9473 133.613 22.5566C133.473 23.166 133.373 23.7871 133.314 24.4199C133.268 25.0527 133.244 25.6562 133.244 26.2305C133.244 26.4297 133.256 26.6992 133.279 27.0391C133.303 27.3789 133.344 27.7422 133.402 28.1289C133.473 28.5156 133.555 28.9082 133.648 29.3066C133.754 29.7051 133.883 30.0684 134.035 30.3965C134.199 30.7129 134.387 30.9766 134.598 31.1875C134.809 31.3867 135.055 31.4863 135.336 31.4863C135.641 31.4863 136.01 31.3223 136.443 30.9941C136.889 30.6543 137.422 30.0859 138.043 29.2891C138.406 28.7969 138.77 28.2051 139.133 27.5137C139.438 26.9277 139.76 26.207 140.1 25.3516C140.451 24.4961 140.762 23.5 141.031 22.3633L141.383 18.2324ZM153.529 24.2441C153.471 24.9121 153.418 25.6621 153.371 26.4941C153.324 27.209 153.271 28.0586 153.213 29.043C153.154 30.0156 153.09 31.0938 153.02 32.2773L150.066 34.791C150.324 32.4004 150.547 30.1211 150.734 27.9531C150.934 25.7852 151.033 23.6465 151.033 21.5371C151.033 20.4707 150.887 19.6855 150.594 19.1816C150.301 18.666 149.908 18.4082 149.416 18.4082C148.9 18.4082 148.303 18.6719 147.623 19.1992C147.775 19.0586 147.957 18.8828 148.168 18.6719C148.391 18.4492 148.625 18.2148 148.871 17.9688C149.129 17.7227 149.393 17.4766 149.662 17.2305C149.943 16.9844 150.213 16.7617 150.471 16.5625C150.74 16.3633 150.998 16.2051 151.244 16.0879C151.49 15.959 151.707 15.8945 151.895 15.8945C152.352 15.8945 152.703 16.0234 152.949 16.2812C153.195 16.5391 153.377 16.8555 153.494 17.2305C153.611 17.6055 153.682 17.998 153.705 18.4082C153.729 18.8184 153.74 19.1699 153.74 19.4629V20.2891C154.361 19.2578 155.094 18.3496 155.938 17.5645C156.793 16.7793 157.789 16.2227 158.926 15.8945C159.172 15.8242 159.412 15.8066 159.646 15.8418C159.881 15.8652 160.115 15.9121 160.35 15.9824C160.584 16.041 160.83 16.1055 161.088 16.1758C161.357 16.2461 161.645 16.2812 161.949 16.2812C162.184 16.2812 162.43 16.252 162.688 16.1934C162.945 16.1348 163.238 16.0352 163.566 15.8945C163.227 16.2344 162.893 16.5684 162.564 16.8965C162.236 17.2246 161.908 17.5234 161.58 17.793C161.264 18.0508 160.947 18.2734 160.631 18.4609C160.326 18.6367 160.033 18.7422 159.752 18.7773C159.447 18.8125 159.154 18.7949 158.873 18.7246C158.604 18.6426 158.322 18.5605 158.029 18.4785C157.748 18.3848 157.449 18.3203 157.133 18.2852C156.816 18.2383 156.477 18.2676 156.113 18.373C155.867 18.4551 155.621 18.6836 155.375 19.0586C155.141 19.4219 154.906 19.8789 154.672 20.4297C154.449 20.9688 154.238 21.5723 154.039 22.2402C153.852 22.8965 153.682 23.5527 153.529 24.209V24.2441ZM172.918 28.1641L172.549 29.9746C172.279 30.1973 171.963 30.4785 171.6 30.8184C171.248 31.1465 170.861 31.4922 170.439 31.8555C170.029 32.2188 169.602 32.5762 169.156 32.9277C168.711 33.2676 168.266 33.5605 167.82 33.8066C167.375 34.041 166.936 34.2051 166.502 34.2988C166.08 34.4043 165.688 34.3867 165.324 34.2461C165.09 34.1641 164.885 34.041 164.709 33.877C164.545 33.7129 164.404 33.4785 164.287 33.1738C164.182 32.8691 164.1 32.4824 164.041 32.0137C163.982 31.5332 163.953 30.9473 163.953 30.2559C163.953 28.1699 163.994 26.1484 164.076 24.1914C164.17 22.2227 164.281 20.2715 164.41 18.3379C163.918 18.373 163.432 18.4375 162.951 18.5312C162.482 18.6133 162.119 18.7539 161.861 18.9531C162.6 18.2969 163.18 17.6934 163.602 17.1426C164.023 16.5801 164.346 16.082 164.568 15.6484L164.779 12.4316L167.803 9.91797L167.434 16.2109C167.691 16.2344 167.932 16.2461 168.154 16.2461C168.377 16.2461 168.594 16.2461 168.805 16.2461C169.824 16.2461 170.768 16.1582 171.635 15.9824C172.514 15.7949 173.357 15.5488 174.166 15.2441C173.416 15.8418 172.695 16.3281 172.004 16.7031C171.324 17.0781 170.691 17.3828 170.105 17.6172C169.52 17.8398 168.986 18.0039 168.506 18.1094C168.025 18.2031 167.621 18.2676 167.293 18.3027C167.176 20.4121 167.082 22.123 167.012 23.4355C166.953 24.7363 166.906 25.7441 166.871 26.459C166.824 27.3027 166.801 27.918 166.801 28.3047C166.766 28.8789 166.801 29.3887 166.906 29.834C167.012 30.2793 167.17 30.6484 167.381 30.9414C167.604 31.2344 167.867 31.4395 168.172 31.5566C168.488 31.6738 168.834 31.6855 169.209 31.5918C169.502 31.498 169.842 31.3105 170.229 31.0293C170.557 30.7949 170.943 30.4551 171.389 30.0098C171.846 29.5527 172.355 28.9375 172.918 28.1641ZM161.861 18.9531L161.756 19.0234L161.861 18.9531Z" fill="black"/>
</g>
<defs>
<filter id="filter0_d_1_4" x="0.486328" y="0.673828" width="178.68" height="54.666" filterUnits="userSpaceOnUse" color-interpolation-filters="sRGB">
<feFlood flood-opacity="0" result="BackgroundImageFix"/>
<feColorMatrix in="SourceAlpha" type="matrix" values="0 0 0 0 0 0 0 0 0 0 0 0 0 0 0 0 0 0 127 0" result="hardAlpha"/>
<feOffset dy="4"/>
<feGaussianBlur stdDeviation="2.5"/>
<feComposite in2="hardAlpha" operator="out"/>
<feColorMatrix type="matrix" values="0 0 0 0 0 0 0 0 0 0 0 0 0 0 0 0 0 0 0.25 0"/>
<feBlend mode="normal" in2="BackgroundImageFix" result="effect1_dropShadow_1_4"/>
<feBlend mode="normal" in="SourceGraphic" in2="effect1_dropShadow_1_4" result="shape"/>
</filter>
</defs>
</svg>
